<mxfile host="app.diagrams.net" modified="2022-11-01T07:59:00.613Z" agent="5.0 (Windows NT 10.0; Win64; x64) AppleWebKit/537.36 (KHTML, like Gecko) Chrome/107.0.0.0 Safari/537.36" etag="L6qsK9QUccPU0Uz3lWVO" version="20.5.1" type="github">
  <diagram id="5lIxNz3UlU7LYUMPSmsw" name="Sayfa -1">
    <mxGraphModel dx="1597" dy="891" grid="1" gridSize="10" guides="1" tooltips="1" connect="1" arrows="1" fold="1" page="1" pageScale="1" pageWidth="827" pageHeight="1169" math="0" shadow="0">
      <root>
        <mxCell id="0" />
        <mxCell id="1" parent="0" />
        <mxCell id="zLrGijErEhUgil4oPc2Z-3" style="edgeStyle=orthogonalEdgeStyle;rounded=0;orthogonalLoop=1;jettySize=auto;html=1;" edge="1" parent="1" source="zLrGijErEhUgil4oPc2Z-1">
          <mxGeometry relative="1" as="geometry">
            <mxPoint x="390" y="170" as="targetPoint" />
          </mxGeometry>
        </mxCell>
        <mxCell id="zLrGijErEhUgil4oPc2Z-1" value="Start" style="ellipse;whiteSpace=wrap;html=1;" vertex="1" parent="1">
          <mxGeometry x="330" y="50" width="120" height="80" as="geometry" />
        </mxCell>
        <mxCell id="zLrGijErEhUgil4oPc2Z-6" style="edgeStyle=orthogonalEdgeStyle;rounded=0;orthogonalLoop=1;jettySize=auto;html=1;" edge="1" parent="1">
          <mxGeometry relative="1" as="geometry">
            <mxPoint x="389.5" y="230" as="sourcePoint" />
            <mxPoint x="389.5" y="250" as="targetPoint" />
          </mxGeometry>
        </mxCell>
        <mxCell id="zLrGijErEhUgil4oPc2Z-4" value="a= 85, sade = true;" style="rounded=0;whiteSpace=wrap;html=1;" vertex="1" parent="1">
          <mxGeometry x="320" y="170" width="140" height="60" as="geometry" />
        </mxCell>
        <mxCell id="zLrGijErEhUgil4oPc2Z-9" style="edgeStyle=orthogonalEdgeStyle;rounded=0;orthogonalLoop=1;jettySize=auto;html=1;" edge="1" parent="1" source="zLrGijErEhUgil4oPc2Z-7" target="zLrGijErEhUgil4oPc2Z-10">
          <mxGeometry relative="1" as="geometry">
            <mxPoint x="260" y="310" as="targetPoint" />
          </mxGeometry>
        </mxCell>
        <mxCell id="zLrGijErEhUgil4oPc2Z-13" style="edgeStyle=orthogonalEdgeStyle;rounded=0;orthogonalLoop=1;jettySize=auto;html=1;entryX=0.5;entryY=0;entryDx=0;entryDy=0;" edge="1" parent="1" source="zLrGijErEhUgil4oPc2Z-7" target="zLrGijErEhUgil4oPc2Z-14">
          <mxGeometry relative="1" as="geometry">
            <mxPoint x="389.75" y="400" as="targetPoint" />
          </mxGeometry>
        </mxCell>
        <mxCell id="zLrGijErEhUgil4oPc2Z-7" value="a ==0&amp;nbsp;&lt;span style=&quot;color: rgb(110, 119, 129); font-family: ui-monospace, SFMono-Regular, &amp;quot;SF Mono&amp;quot;, Menlo, Consolas, &amp;quot;Liberation Mono&amp;quot;, monospace; text-align: start; background-color: rgb(255, 255, 255);&quot;&gt;||&lt;b&gt; a== 1&lt;/b&gt;&lt;/span&gt;" style="rhombus;whiteSpace=wrap;html=1;" vertex="1" parent="1">
          <mxGeometry x="336.25" y="250" width="107.5" height="120" as="geometry" />
        </mxCell>
        <mxCell id="zLrGijErEhUgil4oPc2Z-73" style="edgeStyle=orthogonalEdgeStyle;rounded=0;orthogonalLoop=1;jettySize=auto;html=1;entryX=0;entryY=0.5;entryDx=0;entryDy=0;" edge="1" parent="1" source="zLrGijErEhUgil4oPc2Z-10" target="zLrGijErEhUgil4oPc2Z-44">
          <mxGeometry relative="1" as="geometry">
            <mxPoint x="270" y="825.0000000000002" as="targetPoint" />
          </mxGeometry>
        </mxCell>
        <mxCell id="zLrGijErEhUgil4oPc2Z-10" value="print (ne sade, ne de murekkeb deyil)" style="shape=parallelogram;perimeter=parallelogramPerimeter;whiteSpace=wrap;html=1;fixedSize=1;" vertex="1" parent="1">
          <mxGeometry x="110" y="795" width="140" height="60" as="geometry" />
        </mxCell>
        <mxCell id="zLrGijErEhUgil4oPc2Z-11" value="true" style="text;html=1;strokeColor=none;fillColor=none;align=center;verticalAlign=middle;whiteSpace=wrap;rounded=0;" vertex="1" parent="1">
          <mxGeometry x="276.25" y="280" width="60" height="30" as="geometry" />
        </mxCell>
        <mxCell id="zLrGijErEhUgil4oPc2Z-19" style="edgeStyle=orthogonalEdgeStyle;rounded=0;orthogonalLoop=1;jettySize=auto;html=1;" edge="1" parent="1" source="zLrGijErEhUgil4oPc2Z-14" target="zLrGijErEhUgil4oPc2Z-18">
          <mxGeometry relative="1" as="geometry" />
        </mxCell>
        <mxCell id="zLrGijErEhUgil4oPc2Z-85" style="edgeStyle=orthogonalEdgeStyle;rounded=0;orthogonalLoop=1;jettySize=auto;html=1;entryX=0.5;entryY=0;entryDx=0;entryDy=0;" edge="1" parent="1" source="zLrGijErEhUgil4oPc2Z-14" target="zLrGijErEhUgil4oPc2Z-34">
          <mxGeometry relative="1" as="geometry" />
        </mxCell>
        <mxCell id="zLrGijErEhUgil4oPc2Z-14" value="let i=2; i&amp;lt;2; i++" style="shape=hexagon;perimeter=hexagonPerimeter2;whiteSpace=wrap;html=1;fixedSize=1;" vertex="1" parent="1">
          <mxGeometry x="295" y="450" width="190" height="70" as="geometry" />
        </mxCell>
        <mxCell id="zLrGijErEhUgil4oPc2Z-15" value="false" style="text;html=1;strokeColor=none;fillColor=none;align=center;verticalAlign=middle;whiteSpace=wrap;rounded=0;" vertex="1" parent="1">
          <mxGeometry x="330" y="400" width="60" height="30" as="geometry" />
        </mxCell>
        <mxCell id="zLrGijErEhUgil4oPc2Z-80" style="edgeStyle=orthogonalEdgeStyle;rounded=0;orthogonalLoop=1;jettySize=auto;html=1;entryX=0.5;entryY=0;entryDx=0;entryDy=0;" edge="1" parent="1" source="zLrGijErEhUgil4oPc2Z-18" target="zLrGijErEhUgil4oPc2Z-24">
          <mxGeometry relative="1" as="geometry" />
        </mxCell>
        <mxCell id="zLrGijErEhUgil4oPc2Z-90" style="edgeStyle=orthogonalEdgeStyle;rounded=0;orthogonalLoop=1;jettySize=auto;html=1;" edge="1" parent="1" source="zLrGijErEhUgil4oPc2Z-18">
          <mxGeometry relative="1" as="geometry">
            <mxPoint x="390" y="390" as="targetPoint" />
            <Array as="points">
              <mxPoint x="600" y="390" />
            </Array>
          </mxGeometry>
        </mxCell>
        <mxCell id="zLrGijErEhUgil4oPc2Z-18" value="a%i==0" style="rhombus;whiteSpace=wrap;html=1;" vertex="1" parent="1">
          <mxGeometry x="545" y="420" width="110" height="130" as="geometry" />
        </mxCell>
        <mxCell id="zLrGijErEhUgil4oPc2Z-31" style="edgeStyle=orthogonalEdgeStyle;rounded=0;orthogonalLoop=1;jettySize=auto;html=1;" edge="1" parent="1" source="zLrGijErEhUgil4oPc2Z-24" target="zLrGijErEhUgil4oPc2Z-27">
          <mxGeometry relative="1" as="geometry" />
        </mxCell>
        <mxCell id="zLrGijErEhUgil4oPc2Z-24" value="sade = false" style="rounded=0;whiteSpace=wrap;html=1;" vertex="1" parent="1">
          <mxGeometry x="540" y="584.5" width="120" height="45" as="geometry" />
        </mxCell>
        <mxCell id="zLrGijErEhUgil4oPc2Z-36" style="edgeStyle=orthogonalEdgeStyle;rounded=0;orthogonalLoop=1;jettySize=auto;html=1;entryX=0.5;entryY=0;entryDx=0;entryDy=0;" edge="1" parent="1" source="zLrGijErEhUgil4oPc2Z-27" target="zLrGijErEhUgil4oPc2Z-35">
          <mxGeometry relative="1" as="geometry" />
        </mxCell>
        <mxCell id="zLrGijErEhUgil4oPc2Z-27" value="break" style="rounded=0;whiteSpace=wrap;html=1;" vertex="1" parent="1">
          <mxGeometry x="540" y="700" width="120" height="40" as="geometry" />
        </mxCell>
        <mxCell id="zLrGijErEhUgil4oPc2Z-99" style="edgeStyle=orthogonalEdgeStyle;rounded=0;orthogonalLoop=1;jettySize=auto;html=1;entryX=0.448;entryY=0.023;entryDx=0;entryDy=0;entryPerimeter=0;" edge="1" parent="1" source="zLrGijErEhUgil4oPc2Z-34" target="zLrGijErEhUgil4oPc2Z-44">
          <mxGeometry relative="1" as="geometry" />
        </mxCell>
        <mxCell id="zLrGijErEhUgil4oPc2Z-34" value="print (sadedir)" style="shape=parallelogram;perimeter=parallelogramPerimeter;whiteSpace=wrap;html=1;fixedSize=1;" vertex="1" parent="1">
          <mxGeometry x="330" y="590" width="120" height="50" as="geometry" />
        </mxCell>
        <mxCell id="zLrGijErEhUgil4oPc2Z-49" style="edgeStyle=orthogonalEdgeStyle;rounded=0;orthogonalLoop=1;jettySize=auto;html=1;entryX=1;entryY=0.5;entryDx=0;entryDy=0;" edge="1" parent="1" source="zLrGijErEhUgil4oPc2Z-35" target="zLrGijErEhUgil4oPc2Z-44">
          <mxGeometry relative="1" as="geometry" />
        </mxCell>
        <mxCell id="zLrGijErEhUgil4oPc2Z-35" value="print (murekkebdir)" style="shape=parallelogram;perimeter=parallelogramPerimeter;whiteSpace=wrap;html=1;fixedSize=1;" vertex="1" parent="1">
          <mxGeometry x="535" y="800" width="130" height="50" as="geometry" />
        </mxCell>
        <mxCell id="zLrGijErEhUgil4oPc2Z-44" value="End" style="ellipse;whiteSpace=wrap;html=1;" vertex="1" parent="1">
          <mxGeometry x="336.25" y="700" width="120" height="60" as="geometry" />
        </mxCell>
        <mxCell id="zLrGijErEhUgil4oPc2Z-65" value="true" style="text;html=1;strokeColor=none;fillColor=none;align=center;verticalAlign=middle;whiteSpace=wrap;rounded=0;" vertex="1" parent="1">
          <mxGeometry x="485" y="450" width="60" height="30" as="geometry" />
        </mxCell>
        <mxCell id="zLrGijErEhUgil4oPc2Z-67" value="false" style="text;html=1;strokeColor=none;fillColor=none;align=center;verticalAlign=middle;whiteSpace=wrap;rounded=0;" vertex="1" parent="1">
          <mxGeometry x="336.25" y="530" width="60" height="30" as="geometry" />
        </mxCell>
        <mxCell id="zLrGijErEhUgil4oPc2Z-91" value="false" style="text;html=1;strokeColor=none;fillColor=none;align=center;verticalAlign=middle;whiteSpace=wrap;rounded=0;" vertex="1" parent="1">
          <mxGeometry x="485" y="360" width="60" height="30" as="geometry" />
        </mxCell>
        <mxCell id="zLrGijErEhUgil4oPc2Z-100" value="true" style="text;html=1;strokeColor=none;fillColor=none;align=center;verticalAlign=middle;whiteSpace=wrap;rounded=0;" vertex="1" parent="1">
          <mxGeometry x="610" y="550" width="60" height="30" as="geometry" />
        </mxCell>
      </root>
    </mxGraphModel>
  </diagram>
</mxfile>
